# xmcd
#
# Track frame offsets: 
#        182
#        19162
#        33912
#        45945
#        70165
#        88480
#        106965
#        125927
#        136627
#        149615
#
# Disc length: 2294 seconds
#
# Revision: 6
# Processed by: cddbd v1.5.2PL0 Copyright (c) Steve Scherf et al.
# Submitted via: ExactAudioCopyFreeDBPlugin 1.0
#
DISCID=8c08f40a
DTITLE=Garth Brooks - Fresh Horses
DYEAR=1995
DGENRE=Country
TTITLE0=The Old Stuff
TTITLE1=Cowboys and Angels
TTITLE2=The Fever
TTITLE3=That Ol' Wind
TTITLE4=Rollin'
TTITLE5=The Change
TTITLE6=The Beaches of Cheyenne
TTITLE7=It's Midnight Cinderella
TTITLE8=She's Every Woman
TTITLE9=Ireland
EXTD=YEAR: 1995
EXTT0=
EXTT1=
EXTT2=
EXTT3=
EXTT4=
EXTT5=
EXTT6=
EXTT7=
EXTT8=
EXTT9=
PLAYORDER=
